<svg xmlns="http://www.w3.org/2000/svg" width="120" height="32" viewBox="0 0 120 32" fill="none" aria-hidden="true">
  <g transform="translate(0, 2)" stroke="#111111" stroke-linecap="round" stroke-linejoin="round">
    <rect x="2.5" y="5.5" width="21" height="19" rx="3.5" fill="none" stroke-width="1.75" />
    <path d="M2.5 11.5h21" fill="none" stroke-width="1.75" />
    <path d="M8 3.5v4M19 3.5v4" fill="none" stroke-width="1.5" />
    <circle cx="8.5" cy="16" r="1.35" fill="#111111" stroke="none" />
    <circle cx="14" cy="16" r="1.35" fill="#111111" stroke="none" />
    <circle cx="19.5" cy="16" r="1.35" fill="#111111" stroke="none" />
    <circle cx="8.5" cy="20.5" r="1.35" fill="#111111" stroke="none" />
    <circle cx="14" cy="20.5" r="1.35" fill="#111111" stroke="none" />
    <circle cx="19.5" cy="20.5" r="1.35" fill="#111111" stroke="none" />
    <path
      d="M23.8 2.2l.85 2 2.15.2-1.65 1.45.55 2.05-1.9-1.15-1.9 1.15.55-2.05-1.65-1.45 2.15-.2.85-2Z"
      fill="#111111"
      stroke="none"
    />
  </g>
  <text
    x="31"
    y="22"
    font-family="system-ui, 'Segoe UI', Roboto, 'Helvetica Neue', sans-serif"
    font-size="16.5"
    font-weight="700"
    letter-spacing="-0.03em"
    fill="#111111"
  >PostAI</text>
</svg>
